<svg width="82" height="45" viewBox="0 0 82 45" fill="none" xmlns="http://www.w3.org/2000/svg">
<path d="M4.464 19.6V17.952C3.52533 17.8773 2.74133 17.632 2.112 17.216C1.49333 16.7893 1.01333 16.288 0.672 15.712L1.76 14.832C2.016 15.3333 2.36267 15.76 2.8 16.112C3.248 16.4533 3.80267 16.672 4.464 16.768V13.248L3.776 13.088C2.816 12.8747 2.13867 12.5387 1.744 12.08C1.34933 11.6213 1.152 11.0827 1.152 10.464C1.152 9.952 1.28 9.48267 1.536 9.056C1.80267 8.61867 2.18133 8.256 2.672 7.968C3.17333 7.68 3.77067 7.504 4.464 7.44V5.84H5.568V7.456C7.04 7.59467 8.16 8.30933 8.928 9.6L7.888 10.4C7.57867 9.86667 7.23733 9.46133 6.864 9.184C6.49067 8.896 6.05867 8.70933 5.568 8.624V12.208L6.384 12.384C7.36533 12.5973 8.048 12.928 8.432 13.376C8.82667 13.8133 9.024 14.3573 9.024 15.008C9.024 15.8293 8.70933 16.512 8.08 17.056C7.46133 17.5893 6.624 17.8933 5.568 17.968V19.6H4.464ZM4.16 11.888L4.464 11.952V8.592C3.77067 8.64533 3.25867 8.832 2.928 9.152C2.608 9.472 2.448 9.85067 2.448 10.288C2.448 10.6507 2.56 10.9707 2.784 11.248C3.01867 11.5253 3.47733 11.7387 4.16 11.888ZM6.176 13.632L5.568 13.488V16.8C6.24 16.7573 6.768 16.592 7.152 16.304C7.536 16.016 7.728 15.6213 7.728 15.12C7.728 14.7893 7.616 14.496 7.392 14.24C7.17867 13.9733 6.77333 13.7707 6.176 13.632Z" fill="white"/>
<path d="M56.544 25.32L51.648 38.12H50.448L55.344 25.32H56.544ZM58.0661 37V29H59.1861L59.2661 30.248C59.5541 29.7573 59.9275 29.4 60.3861 29.176C60.8555 28.952 61.3355 28.84 61.8261 28.84C62.3915 28.84 62.9248 28.968 63.4261 29.224C63.9275 29.48 64.3115 29.8747 64.5781 30.408C64.7488 30.0453 64.9888 29.752 65.2981 29.528C65.6075 29.2933 65.9435 29.1227 66.3061 29.016C66.6795 28.8987 67.0315 28.84 67.3621 28.84C67.8741 28.84 68.3595 28.9467 68.8181 29.16C69.2875 29.3733 69.6715 29.704 69.9701 30.152C70.2688 30.6 70.4181 31.176 70.4181 31.88V37H69.1381V32.008C69.1381 31.2827 68.9568 30.76 68.5941 30.44C68.2315 30.12 67.7835 29.96 67.2501 29.96C66.8341 29.96 66.4448 30.0613 66.0821 30.264C65.7195 30.4667 65.4261 30.7653 65.2021 31.16C64.9888 31.5547 64.8821 32.04 64.8821 32.616V37H63.6021V32.008C63.6021 31.2827 63.4208 30.76 63.0581 30.44C62.6955 30.12 62.2475 29.96 61.7141 29.96C61.3621 29.96 60.9995 30.056 60.6261 30.248C60.2635 30.4293 59.9595 30.7227 59.7141 31.128C59.4688 31.5333 59.3461 32.0667 59.3461 32.728V37H58.0661ZM76.6281 28.84C77.3855 28.84 78.0521 29.0053 78.6281 29.336C79.2148 29.6667 79.6735 30.1467 80.0041 30.776C80.3348 31.3947 80.5001 32.136 80.5001 33C80.5001 33.864 80.3348 34.6107 80.0041 35.24C79.6735 35.8587 79.2148 36.3333 78.6281 36.664C78.0521 36.9947 77.3855 37.16 76.6281 37.16C75.8815 37.16 75.2148 36.9947 74.6281 36.664C74.0415 36.3333 73.5828 35.8587 73.2521 35.24C72.9215 34.6107 72.7561 33.864 72.7561 33C72.7561 32.136 72.9215 31.3947 73.2521 30.776C73.5828 30.1467 74.0415 29.6667 74.6281 29.336C75.2148 29.0053 75.8815 28.84 76.6281 28.84ZM76.6281 29.944C75.8175 29.944 75.1828 30.216 74.7241 30.76C74.2655 31.304 74.0361 32.0507 74.0361 33C74.0361 33.9493 74.2655 34.696 74.7241 35.24C75.1828 35.784 75.8175 36.056 76.6281 36.056C77.4388 36.056 78.0735 35.784 78.5321 35.24C78.9908 34.696 79.2201 33.9493 79.2201 33C79.2201 32.0507 78.9908 31.304 78.5321 30.76C78.0735 30.216 77.4388 29.944 76.6281 29.944Z" fill="white"/>
<path d="M20.904 36V17.608C20.904 17.1773 20.904 16.7213 20.904 16.24C20.9293 15.7333 20.9547 15.214 20.98 14.682C20.1187 15.518 19.118 16.2527 17.978 16.886C16.838 17.494 15.6727 17.9373 14.482 18.216L13.684 15.442C14.14 15.3913 14.71 15.2267 15.394 14.948C16.1033 14.644 16.838 14.2767 17.598 13.846C18.3833 13.39 19.1053 12.9087 19.764 12.402C20.4227 11.8953 20.9293 11.4013 21.284 10.92H23.944V36H20.904ZM38.7126 36.38C36.4833 36.38 34.6846 35.8733 33.3166 34.86C31.974 33.8467 30.9353 32.4407 30.2006 30.642L33.1646 29.084C33.57 30.4013 34.1906 31.478 35.0266 32.314C35.888 33.1247 37.142 33.53 38.7886 33.53C40.5113 33.53 41.8666 33.0613 42.8546 32.124C43.868 31.1613 44.3746 29.844 44.3746 28.172C44.3746 26.3987 43.906 25.056 42.9686 24.144C42.0566 23.232 40.752 22.776 39.0546 22.776C37.8386 22.776 36.7493 22.966 35.7866 23.346C34.824 23.726 34.0513 24.3467 33.4686 25.208L30.8086 24.714L32.2906 10.92H46.3886V13.77H34.8746L33.8866 21.674L33.8106 22.016H33.8866C34.4946 21.3827 35.2673 20.876 36.2046 20.496C37.1673 20.116 38.3073 19.926 39.6246 19.926C41.2206 19.926 42.6013 20.268 43.7666 20.952C44.9573 21.6107 45.882 22.548 46.5406 23.764C47.1993 24.98 47.5286 26.3987 47.5286 28.02C47.5286 29.7427 47.1486 31.2373 46.3886 32.504C45.654 33.7453 44.628 34.708 43.3106 35.392C41.9933 36.0507 40.4606 36.38 38.7126 36.38Z" fill="white"/>
</svg>
