<svg width="84" height="45" viewBox="0 0 84 45" fill="none" xmlns="http://www.w3.org/2000/svg">
<path d="M4.464 19.6V17.952C3.52533 17.8773 2.74133 17.632 2.112 17.216C1.49333 16.7893 1.01333 16.288 0.672 15.712L1.76 14.832C2.016 15.3333 2.36267 15.76 2.8 16.112C3.248 16.4533 3.80267 16.672 4.464 16.768V13.248L3.776 13.088C2.816 12.8747 2.13867 12.5387 1.744 12.08C1.34933 11.6213 1.152 11.0827 1.152 10.464C1.152 9.952 1.28 9.48267 1.536 9.056C1.80267 8.61867 2.18133 8.256 2.672 7.968C3.17333 7.68 3.77067 7.504 4.464 7.44V5.84H5.568V7.456C7.04 7.59467 8.16 8.30933 8.928 9.6L7.888 10.4C7.57867 9.86667 7.23733 9.46133 6.864 9.184C6.49067 8.896 6.05867 8.70933 5.568 8.624V12.208L6.384 12.384C7.36533 12.5973 8.048 12.928 8.432 13.376C8.82667 13.8133 9.024 14.3573 9.024 15.008C9.024 15.8293 8.70933 16.512 8.08 17.056C7.46133 17.5893 6.624 17.8933 5.568 17.968V19.6H4.464ZM4.16 11.888L4.464 11.952V8.592C3.77067 8.64533 3.25867 8.832 2.928 9.152C2.608 9.472 2.448 9.85067 2.448 10.288C2.448 10.6507 2.56 10.9707 2.784 11.248C3.01867 11.5253 3.47733 11.7387 4.16 11.888ZM6.176 13.632L5.568 13.488V16.8C6.24 16.7573 6.768 16.592 7.152 16.304C7.536 16.016 7.728 15.6213 7.728 15.12C7.728 14.7893 7.616 14.496 7.392 14.24C7.17867 13.9733 6.77333 13.7707 6.176 13.632Z" fill="white"/>
<path d="M58.544 25.32L53.648 38.12H52.448L57.344 25.32H58.544ZM60.0661 37V29H61.1861L61.2661 30.248C61.5541 29.7573 61.9275 29.4 62.3861 29.176C62.8555 28.952 63.3355 28.84 63.8261 28.84C64.3915 28.84 64.9248 28.968 65.4261 29.224C65.9275 29.48 66.3115 29.8747 66.5781 30.408C66.7488 30.0453 66.9888 29.752 67.2981 29.528C67.6075 29.2933 67.9435 29.1227 68.3061 29.016C68.6795 28.8987 69.0315 28.84 69.3621 28.84C69.8741 28.84 70.3595 28.9467 70.8181 29.16C71.2875 29.3733 71.6715 29.704 71.9701 30.152C72.2688 30.6 72.4181 31.176 72.4181 31.88V37H71.1381V32.008C71.1381 31.2827 70.9568 30.76 70.5941 30.44C70.2315 30.12 69.7835 29.96 69.2501 29.96C68.8341 29.96 68.4448 30.0613 68.0821 30.264C67.7195 30.4667 67.4261 30.7653 67.2021 31.16C66.9888 31.5547 66.8821 32.04 66.8821 32.616V37H65.6021V32.008C65.6021 31.2827 65.4208 30.76 65.0581 30.44C64.6955 30.12 64.2475 29.96 63.7141 29.96C63.3621 29.96 62.9995 30.056 62.6261 30.248C62.2635 30.4293 61.9595 30.7227 61.7141 31.128C61.4688 31.5333 61.3461 32.0667 61.3461 32.728V37H60.0661ZM78.6281 28.84C79.3855 28.84 80.0521 29.0053 80.6281 29.336C81.2148 29.6667 81.6735 30.1467 82.0041 30.776C82.3348 31.3947 82.5001 32.136 82.5001 33C82.5001 33.864 82.3348 34.6107 82.0041 35.24C81.6735 35.8587 81.2148 36.3333 80.6281 36.664C80.0521 36.9947 79.3855 37.16 78.6281 37.16C77.8815 37.16 77.2148 36.9947 76.6281 36.664C76.0415 36.3333 75.5828 35.8587 75.2521 35.24C74.9215 34.6107 74.7561 33.864 74.7561 33C74.7561 32.136 74.9215 31.3947 75.2521 30.776C75.5828 30.1467 76.0415 29.6667 76.6281 29.336C77.2148 29.0053 77.8815 28.84 78.6281 28.84ZM78.6281 29.944C77.8175 29.944 77.1828 30.216 76.7241 30.76C76.2655 31.304 76.0361 32.0507 76.0361 33C76.0361 33.9493 76.2655 34.696 76.7241 35.24C77.1828 35.784 77.8175 36.056 78.6281 36.056C79.4388 36.056 80.0735 35.784 80.5321 35.24C80.9908 34.696 81.2201 33.9493 81.2201 33C81.2201 32.0507 80.9908 31.304 80.5321 30.76C80.0735 30.216 79.4388 29.944 78.6281 29.944Z" fill="white"/>
<path d="M20.904 36V17.608C20.904 17.1773 20.904 16.7213 20.904 16.24C20.9293 15.7333 20.9547 15.214 20.98 14.682C20.1187 15.518 19.118 16.2527 17.978 16.886C16.838 17.494 15.6727 17.9373 14.482 18.216L13.684 15.442C14.14 15.3913 14.71 15.2267 15.394 14.948C16.1033 14.644 16.838 14.2767 17.598 13.846C18.3833 13.39 19.1053 12.9087 19.764 12.402C20.4227 11.8953 20.9293 11.4013 21.284 10.92H23.944V36H20.904ZM39.0926 10.54C41.1953 10.54 42.9686 11.0973 44.4126 12.212C45.8566 13.3013 46.946 14.8213 47.6806 16.772C48.4153 18.6973 48.7826 20.9267 48.7826 23.46C48.7826 27.6653 47.9593 30.87 46.3126 33.074C44.6913 35.278 42.2973 36.38 39.1306 36.38C37.0533 36.38 35.2673 35.8987 33.7726 34.936C32.278 33.9733 31.1633 32.5673 30.4286 30.718L33.4306 29.122C33.836 30.4393 34.4946 31.5033 35.4066 32.314C36.344 33.1247 37.6233 33.53 39.2446 33.53C40.9926 33.53 42.3606 33.074 43.3486 32.162C44.3366 31.25 45.0206 29.958 45.4006 28.286C45.806 26.614 46.0086 24.6633 46.0086 22.434V22.092H45.8566C45.5526 23.232 45.0206 24.1567 44.2606 24.866C43.5006 25.55 42.6393 26.044 41.6766 26.348C40.7393 26.652 39.802 26.804 38.8646 26.804C37.218 26.804 35.7613 26.4873 34.4946 25.854C33.228 25.1953 32.24 24.2833 31.5306 23.118C30.8213 21.9527 30.4666 20.572 30.4666 18.976C30.4666 16.4173 31.2266 14.378 32.7466 12.858C34.292 11.3127 36.4073 10.54 39.0926 10.54ZM39.1306 13.466C37.3573 13.466 36.002 13.96 35.0646 14.948C34.1273 15.9107 33.6586 17.266 33.6586 19.014C33.6586 20.5087 34.1526 21.6993 35.1406 22.586C36.1286 23.4473 37.4586 23.878 39.1306 23.878C40.7773 23.878 42.0946 23.3967 43.0826 22.434C44.096 21.4713 44.6026 20.23 44.6026 18.71C44.6026 17.1393 44.096 15.8727 43.0826 14.91C42.0946 13.9473 40.7773 13.466 39.1306 13.466Z" fill="white"/>
</svg>
