<svg width="90" height="45" viewBox="0 0 90 45" fill="none" xmlns="http://www.w3.org/2000/svg">
<path d="M4.464 19.6V17.952C3.52533 17.8773 2.74133 17.632 2.112 17.216C1.49333 16.7893 1.01333 16.288 0.672 15.712L1.76 14.832C2.016 15.3333 2.36267 15.76 2.8 16.112C3.248 16.4533 3.80267 16.672 4.464 16.768V13.248L3.776 13.088C2.816 12.8747 2.13867 12.5387 1.744 12.08C1.34933 11.6213 1.152 11.0827 1.152 10.464C1.152 9.952 1.28 9.48267 1.536 9.056C1.80267 8.61867 2.18133 8.256 2.672 7.968C3.17333 7.68 3.77067 7.504 4.464 7.44V5.84H5.568V7.456C7.04 7.59467 8.16 8.30933 8.928 9.6L7.888 10.4C7.57867 9.86667 7.23733 9.46133 6.864 9.184C6.49067 8.896 6.05867 8.70933 5.568 8.624V12.208L6.384 12.384C7.36533 12.5973 8.048 12.928 8.432 13.376C8.82667 13.8133 9.024 14.3573 9.024 15.008C9.024 15.8293 8.70933 16.512 8.08 17.056C7.46133 17.5893 6.624 17.8933 5.568 17.968V19.6H4.464ZM4.16 11.888L4.464 11.952V8.592C3.77067 8.64533 3.25867 8.832 2.928 9.152C2.608 9.472 2.448 9.85067 2.448 10.288C2.448 10.6507 2.56 10.9707 2.784 11.248C3.01867 11.5253 3.47733 11.7387 4.16 11.888ZM6.176 13.632L5.568 13.488V16.8C6.24 16.7573 6.768 16.592 7.152 16.304C7.536 16.016 7.728 15.6213 7.728 15.12C7.728 14.7893 7.616 14.496 7.392 14.24C7.17867 13.9733 6.77333 13.7707 6.176 13.632Z" fill="white"/>
<path d="M64.544 25.32L59.648 38.12H58.448L63.344 25.32H64.544ZM66.0661 37V29H67.1861L67.2661 30.248C67.5541 29.7573 67.9275 29.4 68.3861 29.176C68.8555 28.952 69.3355 28.84 69.8261 28.84C70.3915 28.84 70.9248 28.968 71.4261 29.224C71.9275 29.48 72.3115 29.8747 72.5781 30.408C72.7488 30.0453 72.9888 29.752 73.2981 29.528C73.6075 29.2933 73.9435 29.1227 74.3061 29.016C74.6795 28.8987 75.0315 28.84 75.3621 28.84C75.8741 28.84 76.3595 28.9467 76.8181 29.16C77.2875 29.3733 77.6715 29.704 77.9701 30.152C78.2688 30.6 78.4181 31.176 78.4181 31.88V37H77.1381V32.008C77.1381 31.2827 76.9568 30.76 76.5941 30.44C76.2315 30.12 75.7835 29.96 75.2501 29.96C74.8341 29.96 74.4448 30.0613 74.0821 30.264C73.7195 30.4667 73.4261 30.7653 73.2021 31.16C72.9888 31.5547 72.8821 32.04 72.8821 32.616V37H71.6021V32.008C71.6021 31.2827 71.4208 30.76 71.0581 30.44C70.6955 30.12 70.2475 29.96 69.7141 29.96C69.3621 29.96 68.9995 30.056 68.6261 30.248C68.2635 30.4293 67.9595 30.7227 67.7141 31.128C67.4688 31.5333 67.3461 32.0667 67.3461 32.728V37H66.0661ZM84.6281 28.84C85.3855 28.84 86.0521 29.0053 86.6281 29.336C87.2148 29.6667 87.6735 30.1467 88.0041 30.776C88.3348 31.3947 88.5001 32.136 88.5001 33C88.5001 33.864 88.3348 34.6107 88.0041 35.24C87.6735 35.8587 87.2148 36.3333 86.6281 36.664C86.0521 36.9947 85.3855 37.16 84.6281 37.16C83.8815 37.16 83.2148 36.9947 82.6281 36.664C82.0415 36.3333 81.5828 35.8587 81.2521 35.24C80.9215 34.6107 80.7561 33.864 80.7561 33C80.7561 32.136 80.9215 31.3947 81.2521 30.776C81.5828 30.1467 82.0415 29.6667 82.6281 29.336C83.2148 29.0053 83.8815 28.84 84.6281 28.84ZM84.6281 29.944C83.8175 29.944 83.1828 30.216 82.7241 30.76C82.2655 31.304 82.0361 32.0507 82.0361 33C82.0361 33.9493 82.2655 34.696 82.7241 35.24C83.1828 35.784 83.8175 36.056 84.6281 36.056C85.4388 36.056 86.0735 35.784 86.5321 35.24C86.9908 34.696 87.2201 33.9493 87.2201 33C87.2201 32.0507 86.9908 31.304 86.5321 30.76C86.0735 30.216 85.4388 29.944 84.6281 29.944Z" fill="white"/>
<path d="M15.812 36V33.53C18.32 31.6807 20.41 30.0593 22.082 28.666C23.7793 27.2727 25.1347 26.006 26.148 24.866C27.1613 23.726 27.8833 22.6493 28.314 21.636C28.7447 20.5973 28.96 19.5207 28.96 18.406C28.96 16.9113 28.4787 15.708 27.516 14.796C26.5787 13.8587 25.2867 13.39 23.64 13.39C21.9173 13.39 20.5367 13.96 19.498 15.1C18.4593 16.2147 17.8513 17.7093 17.674 19.584L15.014 17.988C15.3433 15.8093 16.2427 14.0233 17.712 12.63C19.2067 11.2367 21.2207 10.54 23.754 10.54C25.4767 10.54 26.9587 10.882 28.2 11.566C29.4667 12.2247 30.442 13.1493 31.126 14.34C31.81 15.5053 32.152 16.8607 32.152 18.406C32.152 19.9767 31.772 21.522 31.012 23.042C30.252 24.5367 28.998 26.1073 27.25 27.754C25.502 29.4007 23.1333 31.2247 20.144 33.226V33.264C20.4227 33.2387 20.8027 33.226 21.284 33.226C21.7907 33.2007 22.2847 33.188 22.766 33.188C23.2727 33.1627 23.6527 33.15 23.906 33.15H32.684V36H15.812ZM47.9119 36V29.426H35.6759V27.184L47.1139 10.92H50.9519V26.804H55.3979V29.426H50.9519V36H47.9119ZM38.9059 26.804H47.9119V17.418C47.9119 16.7593 47.9246 16.088 47.9499 15.404C48.0006 14.72 48.0386 14.0487 48.0639 13.39H47.9879C47.6839 14.0233 47.2912 14.7327 46.8099 15.518C46.3286 16.3033 45.8852 16.9873 45.4799 17.57L38.9059 26.804Z" fill="white"/>
</svg>
